# xmcd CD database file
#
# Track frame offsets:
#	150
#	11709
#	23797
#	39301
#	54230
#	67260
#	82404
#	97450
#	108795
#	122941
#	133363
#	143656
#	154696
#	164593
#	178601
#	190572
#	201860
#
# Disc length: 2871 seconds
#
# Revision: 1
# Processed by: cddbd v1.5.2PL0 Copyright (c) Steve Scherf et al.
# Submitted via: CDex 1.83
#
DISCID=f70b3511
DTITLE=Frank Sinatra - The Rat Pack 06 - Frank Sinatra
DYEAR=1954
DGENRE=Jazz
TTITLE0=Sunday (Coots - Grey)
TTITLE1=The Girl Next Door (Blane - Martin)
TTITLE2=Rain (Falling From The Skies) (Finlay - Mellin)
TTITLE3=Just On Of Those Things (Cole Porter)
TTITLE4=Young At Heart (Leigh - Richards)
TTITLE5=I Could Have Told You (Van Heusen - Sigman)
TTITLE6=Last Night When We Were Young (Arlen - Harburg)
TTITLE7=I'm Gonna Sit Right Down and Write Myself A Letter (Ahlert-Young)
TTITLE8=Three Coins In The Fountain (Styne - Kahn)
TTITLE9=Wrap Your Troubles In Dreams (Koehler - Moll - Barris)
TTITLE10=Taking A Chance On Love (Duke - Fetter)
TTITLE11=Jeepers Creepers (Warrern - Mercer)
TTITLE12=All Of Me (Simons - Marks)
TTITLE13=Melody Of Love (Engelmann - Glazer)
TTITLE14=Love And Marriage (Van Heusen - Cahn)
TTITLE15=Same Old Saturday Night (Reardon - Cahn)
TTITLE16=Learnin' The Blues (Silvers)
EXTD=YEAR: 1954
EXTT0=
EXTT1=
EXTT2=
EXTT3=
EXTT4=
EXTT5=
EXTT6=
EXTT7=
EXTT8=
EXTT9=
EXTT10=
EXTT11=
EXTT12=
EXTT13=
EXTT14=
EXTT15=
EXTT16=
PLAYORDER=
